<svg width="21" height="20" viewBox="0 0 21 20" fill="none" xmlns="http://www.w3.org/2000/svg">
<path d="M10.5 0.625C8.26476 0.630325 6.10038 1.40981 4.375 2.83087V2.375C4.375 2.14294 4.28281 1.92038 4.11872 1.75628C3.95462 1.59219 3.73206 1.5 3.5 1.5C3.26794 1.5 3.04538 1.59219 2.88128 1.75628C2.71719 1.92038 2.625 2.14294 2.625 2.375V5C2.625 5.02187 2.6355 5.04112 2.63725 5.063C2.6431 5.11876 2.65423 5.17384 2.6705 5.2275C2.68371 5.28156 2.70187 5.33428 2.72475 5.385C2.74959 5.43313 2.77888 5.47883 2.81225 5.5215C2.83148 5.55538 2.85312 5.58784 2.877 5.61862C2.89275 5.63437 2.91375 5.6405 2.93038 5.6545C2.947 5.6685 2.95487 5.68775 2.9715 5.70088C3.00205 5.71769 3.03361 5.7326 3.066 5.7455C3.11735 5.77667 3.17191 5.80219 3.22875 5.82163C3.28124 5.83761 3.33516 5.84845 3.38975 5.854C3.42601 5.86335 3.46284 5.87037 3.5 5.875H6.125C6.35706 5.875 6.57962 5.78281 6.74372 5.61872C6.90781 5.45462 7 5.23206 7 5C7 4.76794 6.90781 4.54538 6.74372 4.38128C6.57962 4.21719 6.35706 4.125 6.125 4.125H5.56413C6.95461 3.00761 8.68355 2.39594 10.4674 2.39033C12.2512 2.38471 13.9839 2.98548 15.3814 4.09409C16.7789 5.2027 17.7581 6.75333 18.1585 8.49164C18.5589 10.2299 18.3566 12.0527 17.5849 13.6609C16.8132 15.2692 15.5178 16.5674 13.9113 17.3427C12.3048 18.118 10.4824 18.3242 8.74326 17.9277C7.00408 17.5311 5.45129 16.5553 4.3396 15.1603C3.22791 13.7652 2.62332 12.0338 2.625 10.25C2.625 10.0179 2.53281 9.79538 2.36872 9.63128C2.20462 9.46719 1.98206 9.375 1.75 9.375C1.51794 9.375 1.29538 9.46719 1.13128 9.63128C0.967187 9.79538 0.875 10.0179 0.875 10.25C0.875 12.1536 1.4395 14.0145 2.4971 15.5974C3.55471 17.1802 5.05793 18.4138 6.81667 19.1423C8.57541 19.8708 10.5107 20.0614 12.3777 19.6901C14.2448 19.3187 15.9598 18.402 17.3059 17.0559C18.652 15.7098 19.5687 13.9948 19.9401 12.1277C20.3114 10.2607 20.1208 8.32541 19.3923 6.56667C18.6638 4.80793 17.4302 3.30471 15.8474 2.2471C14.2645 1.1895 12.4036 0.625 10.5 0.625Z" fill="white"/>
<path d="M10.5 11.125C10.7321 11.125 10.9546 11.0328 11.1187 10.8687C11.2828 10.7046 11.375 10.4821 11.375 10.25V5C11.375 4.76794 11.2828 4.54538 11.1187 4.38128C10.9546 4.21719 10.7321 4.125 10.5 4.125C10.2679 4.125 10.0454 4.21719 9.88128 4.38128C9.71719 4.54538 9.625 4.76794 9.625 5V9.375H7C6.76794 9.375 6.54538 9.46719 6.38128 9.63128C6.21719 9.79538 6.125 10.0179 6.125 10.25C6.125 10.4821 6.21719 10.7046 6.38128 10.8687C6.54538 11.0328 6.76794 11.125 7 11.125H10.5Z" fill="white"/>
</svg>
