<svg width="18" height="20" viewBox="0 0 18 20" fill="none" xmlns="http://www.w3.org/2000/svg">
<path d="M14.125 6.83331C14.125 5.47408 13.585 4.17051 12.6239 3.20939C11.6628 2.24827 10.3592 1.70831 9 1.70831C7.64077 1.70831 6.3372 2.24827 5.37608 3.20939C4.41495 4.17051 3.875 5.47408 3.875 6.83331C3.875 12.8125 1.3125 14.5208 1.3125 14.5208H16.6875C16.6875 14.5208 14.125 12.8125 14.125 6.83331Z" stroke="white" stroke-width="2" stroke-linecap="round" stroke-linejoin="round"/>
<path d="M10.4778 17.9375C10.3276 18.1964 10.112 18.4113 9.8527 18.5606C9.59336 18.71 9.29933 18.7886 9.00005 18.7886C8.70076 18.7886 8.40673 18.71 8.1474 18.5606C7.88806 18.4113 7.67251 18.1964 7.52234 17.9375" stroke="white" stroke-width="2" stroke-linecap="round" stroke-linejoin="round"/>
</svg>
