<svg width="16" height="20" viewBox="0 0 16 20" fill="none" xmlns="http://www.w3.org/2000/svg">
<path d="M9.54167 1H2.70833C2.25526 1 1.82073 1.17998 1.50036 1.50036C1.17998 1.82073 1 2.25526 1 2.70833V16.375C1 16.8281 1.17998 17.2626 1.50036 17.583C1.82073 17.9033 2.25526 18.0833 2.70833 18.0833H12.9583C13.4114 18.0833 13.8459 17.9033 14.1663 17.583C14.4867 17.2626 14.6667 16.8281 14.6667 16.375V6.125M9.54167 1L14.6667 6.125M9.54167 1L9.54167 6.125H14.6667M11.25 10.3958H4.41667M11.25 13.8125H4.41667M6.125 6.97917H4.41667" stroke="white" stroke-width="2" stroke-linecap="round" stroke-linejoin="round"/>
</svg>
