<svg width="22" height="21" viewBox="0 0 22 21" fill="none" xmlns="http://www.w3.org/2000/svg">
<path d="M11 12.8125C12.4152 12.8125 13.5625 11.6652 13.5625 10.25C13.5625 8.83477 12.4152 7.6875 11 7.6875C9.58477 7.6875 8.4375 8.83477 8.4375 10.25C8.4375 11.6652 9.58477 12.8125 11 12.8125Z" stroke="white" stroke-width="2" stroke-linecap="round" stroke-linejoin="round"/>
<path d="M17.3208 12.8125C17.2071 13.0702 17.1732 13.3559 17.2234 13.633C17.2737 13.9101 17.4057 14.1658 17.6027 14.3671L17.6539 14.4184C17.8128 14.577 17.9388 14.7654 18.0247 14.9728C18.1107 15.1802 18.1549 15.4025 18.1549 15.627C18.1549 15.8515 18.1107 16.0738 18.0247 16.2812C17.9388 16.4886 17.8128 16.677 17.6539 16.8356C17.4953 16.9945 17.3068 17.1205 17.0995 17.2065C16.8921 17.2924 16.6698 17.3367 16.4453 17.3367C16.2208 17.3367 15.9985 17.2924 15.7911 17.2065C15.5837 17.1205 15.3953 16.9945 15.2366 16.8356L15.1854 16.7844C14.9841 16.5875 14.7284 16.4554 14.4513 16.4051C14.1742 16.3549 13.8884 16.3888 13.6308 16.5025C13.3782 16.6108 13.1627 16.7906 13.0109 17.0197C12.8592 17.2489 12.7777 17.5175 12.7766 17.7923V17.9375C12.7766 18.3906 12.5966 18.8251 12.2763 19.1455C11.9559 19.4659 11.5214 19.6459 11.0683 19.6459C10.6152 19.6459 10.1807 19.4659 9.86032 19.1455C9.53994 18.8251 9.35996 18.3906 9.35996 17.9375V17.8606C9.35335 17.5779 9.26183 17.3037 9.09731 17.0737C8.93279 16.8437 8.70288 16.6685 8.43746 16.5709C8.17983 16.4572 7.89404 16.4232 7.61696 16.4735C7.33987 16.5237 7.08418 16.6558 6.88288 16.8527L6.83163 16.904C6.67297 17.0628 6.48456 17.1888 6.27717 17.2748C6.06978 17.3608 5.84748 17.405 5.62298 17.405C5.39848 17.405 5.17618 17.3608 4.96879 17.2748C4.7614 17.1888 4.57299 17.0628 4.41433 16.904C4.2555 16.7453 4.12949 16.5569 4.04352 16.3495C3.95755 16.1421 3.9133 15.9198 3.9133 15.6953C3.9133 15.4708 3.95755 15.2485 4.04352 15.0411C4.12949 14.8338 4.2555 14.6453 4.41433 14.4867L4.46558 14.4354C4.6625 14.2341 4.7946 13.9784 4.84484 13.7014C4.89508 13.4243 4.86116 13.1385 4.74746 12.8809C4.63918 12.6282 4.4594 12.4128 4.23023 12.261C4.00107 12.1092 3.73253 12.0278 3.45767 12.0267H3.31246C2.85938 12.0267 2.42486 11.8467 2.10449 11.5263C1.78411 11.206 1.60413 10.7714 1.60413 10.3184C1.60413 9.86528 1.78411 9.43075 2.10449 9.11038C2.42486 8.79 2.85938 8.61002 3.31246 8.61002H3.38933C3.67206 8.60341 3.94625 8.51189 4.17628 8.34737C4.4063 8.18285 4.58151 7.95294 4.67913 7.68752C4.79283 7.42989 4.82675 7.1441 4.7765 6.86702C4.72626 6.58993 4.59417 6.33425 4.39725 6.13294L4.346 6.08169C4.18717 5.92303 4.06116 5.73462 3.97519 5.52723C3.88922 5.31984 3.84497 5.09754 3.84497 4.87304C3.84497 4.64854 3.88922 4.42624 3.97519 4.21885C4.06116 4.01146 4.18717 3.82305 4.346 3.6644C4.50466 3.50556 4.69307 3.37956 4.90046 3.29358C5.10785 3.20761 5.33015 3.16336 5.55465 3.16336C5.77915 3.16336 6.00145 3.20761 6.20884 3.29358C6.41622 3.37956 6.60463 3.50556 6.76329 3.6644L6.81454 3.71565C7.01585 3.91256 7.27154 4.04466 7.54862 4.0949C7.82571 4.14514 8.1115 4.11122 8.36913 3.99752H8.43746C8.6901 3.88924 8.90556 3.70946 9.05732 3.48029C9.20909 3.25113 9.29053 2.98259 9.29163 2.70773V2.56252C9.29163 2.10944 9.47161 1.67492 9.79199 1.35455C10.1124 1.03417 10.5469 0.854187 11 0.854187C11.453 0.854187 11.8876 1.03417 12.2079 1.35455C12.5283 1.67492 12.7083 2.10944 12.7083 2.56252V2.6394C12.7094 2.91425 12.7908 3.1828 12.9426 3.41196C13.0944 3.64112 13.3098 3.82091 13.5625 3.92919C13.8201 4.04289 14.1059 4.07681 14.383 4.02657C14.66 3.97632 14.9157 3.84423 15.117 3.64731L15.1683 3.59606C15.3269 3.43723 15.5154 3.31122 15.7227 3.22525C15.9301 3.13928 16.1524 3.09503 16.3769 3.09503C16.6014 3.09503 16.8237 3.13928 17.0311 3.22525C17.2385 3.31122 17.4269 3.43723 17.5856 3.59606C17.7444 3.75472 17.8704 3.94313 17.9564 4.15052C18.0424 4.35791 18.0866 4.58021 18.0866 4.80471C18.0866 5.02921 18.0424 5.25151 17.9564 5.4589C17.8704 5.66629 17.7444 5.8547 17.5856 6.01335L17.5343 6.0646C17.3374 6.26591 17.2053 6.5216 17.1551 6.79868C17.1048 7.07577 17.1388 7.36156 17.2525 7.61919V7.68752C17.3607 7.94016 17.5405 8.15562 17.7697 8.30738C17.9989 8.45915 18.2674 8.54059 18.5423 8.54169H18.6875C19.1405 8.54169 19.5751 8.72167 19.8954 9.04205C20.2158 9.36242 20.3958 9.79694 20.3958 10.25C20.3958 10.7031 20.2158 11.1376 19.8954 11.458C19.5751 11.7784 19.1405 11.9584 18.6875 11.9584H18.6106C18.3357 11.9594 18.0672 12.0409 17.838 12.1927C17.6089 12.3444 17.4291 12.5599 17.3208 12.8125V12.8125Z" stroke="white" stroke-width="2" stroke-linecap="round" stroke-linejoin="round"/>
</svg>
