<svg width="20" height="20" viewBox="0 0 20 20" fill="none" xmlns="http://www.w3.org/2000/svg">
<path d="M7.51442 7.18748C7.71523 6.61661 8.11161 6.13524 8.63334 5.82861C9.15506 5.52199 9.76847 5.40991 10.3649 5.51221C10.9614 5.61452 11.5024 5.92462 11.8921 6.38758C12.2818 6.85054 12.4951 7.43649 12.4942 8.04165C12.4942 9.74998 9.93171 10.6041 9.93171 10.6041M10 14.0208H10.0086M18.5417 9.74998C18.5417 14.4674 14.7175 18.2916 10 18.2916C5.28261 18.2916 1.45837 14.4674 1.45837 9.74998C1.45837 5.03255 5.28261 1.20831 10 1.20831C14.7175 1.20831 18.5417 5.03255 18.5417 9.74998Z" stroke="white" stroke-width="2" stroke-linecap="round" stroke-linejoin="round"/>
</svg>
